# xmcd
#
# Track frame offsets:
#	150
#	10314
#	21844
#	39373
#	54336
#	69632
#	87462
#	99298
#	109810
#	123543
#	135415
#	154647
#	175687
#	186922
#	205811
#	217886
#	231984
#	248063
#	259479
#	279724
#
# Disc length: 3970 seconds
#
# Revision: 1
# Processed by: cddbd v1.5.2PL0 Copyright (c) Steve Scherf et al.
# Submitted via: audiograbber 1.83.01
#
DISCID=170f8014
DTITLE=North Ness Boys - Sea of Life
DYEAR=2010
DGENRE=Folk
TTITLE0=Sea of Life
TTITLE1=Psalm 8
TTITLE2=Mansion over the Hilltop
TTITLE3=Mountain Railroad
TTITLE4=If that isn't love
TTITLE5=The river
TTITLE6=Sea of heartbreak
TTITLE7=All the gold
TTITLE8=Rowin Foula Doon
TTITLE9=Do you know
TTITLE10=Evangelina
TTITLE11=Blue ridge mountain girl
TTITLE12=A thing called love
TTITLE13=Where could I go
TTITLE14=By and by
TTITLE15=He touched me
TTITLE16=Till the storm passed by
TTITLE17=Higher ground
TTITLE18=Peace in the valley
TTITLE19=Rock of ages
EXTD=
EXTT0=
EXTT1=
EXTT2=
EXTT3=
EXTT4=
EXTT5=
EXTT6=
EXTT7=
EXTT8=
EXTT9=
EXTT10=
EXTT11=
EXTT12=
EXTT13=
EXTT14=
EXTT15=
EXTT16=
EXTT17=
EXTT18=
EXTT19=
PLAYORDER=
